<mxfile host="app.diagrams.net" modified="2023-07-01T18:36:11.644Z" agent="Mozilla/5.0 (Macintosh; Intel Mac OS X 10.15; rv:109.0) Gecko/20100101 Firefox/114.0" etag="qwZAvgOMzsPZhwRJAoUQ" version="21.3.2" type="device">
  <diagram id="xYdhe3D0M3_KVzX7P65m" name="Page-1">
    <mxGraphModel dx="942" dy="527" grid="1" gridSize="10" guides="1" tooltips="1" connect="1" arrows="1" fold="1" page="1" pageScale="1" pageWidth="850" pageHeight="1100" math="0" shadow="0">
      <root>
        <mxCell id="0" />
        <mxCell id="1" parent="0" />
        <mxCell id="CpfnYOg2v_a6ThCRwZKN-98" style="edgeStyle=orthogonalEdgeStyle;rounded=0;orthogonalLoop=1;jettySize=auto;html=1;strokeWidth=4;entryX=0;entryY=0.5;entryDx=0;entryDy=0;" parent="1" source="CpfnYOg2v_a6ThCRwZKN-48" target="CpfnYOg2v_a6ThCRwZKN-100" edge="1">
          <mxGeometry relative="1" as="geometry">
            <mxPoint x="1070" y="270" as="targetPoint" />
          </mxGeometry>
        </mxCell>
        <mxCell id="CpfnYOg2v_a6ThCRwZKN-48" value="GCP Cloud" style="sketch=0;outlineConnect=0;gradientColor=none;html=1;whiteSpace=wrap;fontSize=12;fontStyle=0;shape=mxgraph.aws4.group;grIcon=mxgraph.aws4.group_aws_cloud;strokeColor=#858B94;fillColor=none;verticalAlign=top;align=left;spacingLeft=30;fontColor=#858B94;dashed=0;perimeter=rectanglePerimeter;autosize=0;" parent="1" vertex="1">
          <mxGeometry x="520" y="155" width="460" height="235" as="geometry" />
        </mxCell>
        <mxCell id="CpfnYOg2v_a6ThCRwZKN-49" value="" style="rounded=1;whiteSpace=wrap;html=1;fontSize=16;fontColor=#2D4D69;gradientColor=none;align=left;dashed=1;arcSize=4;" parent="1" vertex="1">
          <mxGeometry x="548.93" y="175" width="406.5" height="190" as="geometry" />
        </mxCell>
        <mxCell id="CpfnYOg2v_a6ThCRwZKN-50" value="" style="rounded=1;whiteSpace=wrap;html=1;" parent="1" vertex="1">
          <mxGeometry x="530" y="68.75" width="450" height="66.5" as="geometry" />
        </mxCell>
        <mxCell id="CpfnYOg2v_a6ThCRwZKN-51" value="X Cloud" style="sketch=0;outlineConnect=0;gradientColor=none;html=1;whiteSpace=wrap;fontSize=12;fontStyle=0;shape=mxgraph.aws4.group;grIcon=mxgraph.aws4.group_aws_cloud;strokeColor=#858B94;fillColor=none;verticalAlign=top;align=left;spacingLeft=30;fontColor=#858B94;dashed=0;perimeter=rectanglePerimeter;autosize=0;" parent="1" vertex="1">
          <mxGeometry x="10" y="150" width="450" height="240" as="geometry" />
        </mxCell>
        <mxCell id="CpfnYOg2v_a6ThCRwZKN-52" value="" style="shape=image;html=1;verticalAlign=top;verticalLabelPosition=bottom;labelBackgroundColor=#ffffff;imageAspect=0;aspect=fixed;image=https://cdn3.iconfinder.com/data/icons/the-elegant-set/96/database.png" parent="1" vertex="1">
          <mxGeometry x="92" y="178" width="80" height="80" as="geometry" />
        </mxCell>
        <mxCell id="CpfnYOg2v_a6ThCRwZKN-53" value="" style="shape=image;html=1;verticalAlign=top;verticalLabelPosition=bottom;labelBackgroundColor=#ffffff;imageAspect=0;aspect=fixed;image=https://cdn4.iconfinder.com/data/icons/logos-3/181/MySQL-128.png" parent="1" vertex="1">
          <mxGeometry x="31.32" y="183.32" width="69.37" height="69.37" as="geometry" />
        </mxCell>
        <mxCell id="CpfnYOg2v_a6ThCRwZKN-54" style="edgeStyle=orthogonalEdgeStyle;rounded=0;orthogonalLoop=1;jettySize=auto;html=1;entryX=0;entryY=0.5;entryDx=0;entryDy=0;strokeWidth=4;" parent="1" source="CpfnYOg2v_a6ThCRwZKN-52" target="CpfnYOg2v_a6ThCRwZKN-55" edge="1">
          <mxGeometry relative="1" as="geometry" />
        </mxCell>
        <mxCell id="CpfnYOg2v_a6ThCRwZKN-95" value="" style="edgeStyle=orthogonalEdgeStyle;rounded=0;orthogonalLoop=1;jettySize=auto;html=1;" parent="1" source="CpfnYOg2v_a6ThCRwZKN-55" target="CpfnYOg2v_a6ThCRwZKN-52" edge="1">
          <mxGeometry relative="1" as="geometry" />
        </mxCell>
        <mxCell id="CpfnYOg2v_a6ThCRwZKN-55" value="&lt;font style=&quot;font-size: 16px&quot;&gt;Debezium&lt;br&gt;Server&lt;br&gt;&lt;/font&gt;&lt;div&gt;&lt;font style=&quot;font-size: 16px&quot;&gt;Bigquery&lt;/font&gt;&lt;/div&gt;" style="rounded=0;whiteSpace=wrap;html=1;strokeWidth=3;align=left;verticalAlign=top;strokeColor=#FF0000;" parent="1" vertex="1">
          <mxGeometry x="222" y="178" width="200" height="80" as="geometry" />
        </mxCell>
        <mxCell id="CpfnYOg2v_a6ThCRwZKN-56" value="" style="shape=image;verticalLabelPosition=bottom;labelBackgroundColor=#ffffff;verticalAlign=top;aspect=fixed;imageAspect=0;image=https://design.jboss.org/debezium/logo/final/color/color_debezium_256px.png;" parent="1" vertex="1">
          <mxGeometry x="300" y="186.34" width="55.55" height="55.33" as="geometry" />
        </mxCell>
        <mxCell id="CpfnYOg2v_a6ThCRwZKN-57" value="" style="shape=image;html=1;verticalAlign=top;verticalLabelPosition=bottom;labelBackgroundColor=#ffffff;imageAspect=0;aspect=fixed;image=https://cdn3.iconfinder.com/data/icons/the-elegant-set/96/database.png" parent="1" vertex="1">
          <mxGeometry x="92" y="279" width="80" height="80" as="geometry" />
        </mxCell>
        <mxCell id="CpfnYOg2v_a6ThCRwZKN-58" style="edgeStyle=orthogonalEdgeStyle;rounded=0;orthogonalLoop=1;jettySize=auto;html=1;entryX=0;entryY=0.5;entryDx=0;entryDy=0;strokeWidth=4;" parent="1" target="CpfnYOg2v_a6ThCRwZKN-59" edge="1">
          <mxGeometry relative="1" as="geometry">
            <mxPoint x="172" y="318" as="sourcePoint" />
          </mxGeometry>
        </mxCell>
        <mxCell id="CpfnYOg2v_a6ThCRwZKN-59" value="&lt;font style=&quot;font-size: 16px&quot;&gt;Debezium&lt;br&gt;Server&lt;br&gt;&lt;/font&gt;&lt;font style=&quot;font-size: 16px&quot;&gt;Bigquery&lt;/font&gt;" style="rounded=0;whiteSpace=wrap;html=1;strokeWidth=3;align=left;verticalAlign=top;strokeColor=#FF0000;" parent="1" vertex="1">
          <mxGeometry x="222" y="278" width="200" height="80" as="geometry" />
        </mxCell>
        <mxCell id="CpfnYOg2v_a6ThCRwZKN-60" value="" style="shape=image;verticalLabelPosition=bottom;labelBackgroundColor=#ffffff;verticalAlign=top;aspect=fixed;imageAspect=0;image=https://www.crealog.com/media/seiten/news/2020/Postgre.svg;" parent="1" vertex="1">
          <mxGeometry x="30" y="297.16" width="76" height="50.71" as="geometry" />
        </mxCell>
        <mxCell id="CpfnYOg2v_a6ThCRwZKN-61" value="" style="shape=image;verticalLabelPosition=bottom;labelBackgroundColor=#ffffff;verticalAlign=top;aspect=fixed;imageAspect=0;image=https://design.jboss.org/debezium/logo/final/color/color_debezium_256px.png;" parent="1" vertex="1">
          <mxGeometry x="300" y="288.87" width="55.55" height="55.33" as="geometry" />
        </mxCell>
        <mxCell id="CpfnYOg2v_a6ThCRwZKN-62" style="edgeStyle=orthogonalEdgeStyle;rounded=0;orthogonalLoop=1;jettySize=auto;html=1;strokeWidth=4;" parent="1" edge="1">
          <mxGeometry relative="1" as="geometry">
            <mxPoint x="795.5" y="138" as="sourcePoint" />
            <mxPoint x="795.5" y="178" as="targetPoint" />
            <Array as="points">
              <mxPoint x="795.5" y="158" />
              <mxPoint x="795.5" y="158" />
            </Array>
          </mxGeometry>
        </mxCell>
        <mxCell id="CpfnYOg2v_a6ThCRwZKN-63" style="edgeStyle=orthogonalEdgeStyle;rounded=0;orthogonalLoop=1;jettySize=auto;html=1;strokeWidth=4;exitX=0.25;exitY=0;exitDx=0;exitDy=0;" parent="1" edge="1">
          <mxGeometry relative="1" as="geometry">
            <mxPoint x="663.5" y="176.11000000000013" as="sourcePoint" />
            <mxPoint x="663" y="135" as="targetPoint" />
            <Array as="points">
              <mxPoint x="664" y="178" />
              <mxPoint x="663" y="135" />
            </Array>
          </mxGeometry>
        </mxCell>
        <mxCell id="CpfnYOg2v_a6ThCRwZKN-64" value="&lt;div style=&quot;font-size: 16px&quot; align=&quot;left&quot;&gt;&lt;font style=&quot;font-size: 16px&quot; color=&quot;#2D4D69&quot;&gt;&lt;b&gt;Raw Layer&lt;br&gt;&lt;/b&gt;&lt;/font&gt;&lt;/div&gt;" style="text;html=1;strokeColor=none;fillColor=none;align=left;verticalAlign=middle;whiteSpace=wrap;rounded=0;" parent="1" vertex="1">
          <mxGeometry x="566.75" y="318.19" width="90" height="35.81" as="geometry" />
        </mxCell>
        <mxCell id="CpfnYOg2v_a6ThCRwZKN-66" value="" style="shape=image;verticalLabelPosition=bottom;labelBackgroundColor=#ffffff;verticalAlign=top;aspect=fixed;imageAspect=0;image=https://airflow.apache.org/images/feature-image.png;" parent="1" vertex="1">
          <mxGeometry x="611.02" y="79.89" width="104.55" height="44.23" as="geometry" />
        </mxCell>
        <mxCell id="CpfnYOg2v_a6ThCRwZKN-69" value="&lt;font style=&quot;font-size: 16px&quot; color=&quot;#2D4D69&quot;&gt;&lt;b&gt;Curated Layer&lt;br&gt;/Data Warehouse&lt;br&gt;&lt;/b&gt;&lt;/font&gt;" style="text;html=1;strokeColor=none;fillColor=none;align=left;verticalAlign=middle;whiteSpace=wrap;rounded=0;" parent="1" vertex="1">
          <mxGeometry x="737" y="309.8" width="165" height="48.2" as="geometry" />
        </mxCell>
        <mxCell id="CpfnYOg2v_a6ThCRwZKN-71" value="" style="shadow=0;dashed=0;html=1;strokeColor=none;fillColor=#D15E52;labelPosition=center;verticalLabelPosition=bottom;verticalAlign=top;align=center;outlineConnect=0;shape=mxgraph.veeam.table;" parent="1" vertex="1">
          <mxGeometry x="859.0699999999999" y="238" width="34.93" height="35.17" as="geometry" />
        </mxCell>
        <mxCell id="CpfnYOg2v_a6ThCRwZKN-72" value="" style="shadow=0;dashed=0;html=1;strokeColor=none;fillColor=#4495D1;labelPosition=center;verticalLabelPosition=bottom;verticalAlign=top;align=center;outlineConnect=0;shape=mxgraph.veeam.table;" parent="1" vertex="1">
          <mxGeometry x="892.73" y="273.17" width="25.07" height="26.4" as="geometry" />
        </mxCell>
        <mxCell id="CpfnYOg2v_a6ThCRwZKN-73" value="" style="shadow=0;dashed=0;html=1;strokeColor=none;fillColor=#4495D1;labelPosition=center;verticalLabelPosition=bottom;verticalAlign=top;align=center;outlineConnect=0;shape=mxgraph.veeam.table;" parent="1" vertex="1">
          <mxGeometry x="834" y="214.97000000000003" width="25.07" height="26.4" as="geometry" />
        </mxCell>
        <mxCell id="CpfnYOg2v_a6ThCRwZKN-74" value="" style="shadow=0;dashed=0;html=1;strokeColor=none;fillColor=#4495D1;labelPosition=center;verticalLabelPosition=bottom;verticalAlign=top;align=center;outlineConnect=0;shape=mxgraph.veeam.table;" parent="1" vertex="1">
          <mxGeometry x="834" y="273.17" width="25.07" height="26.4" as="geometry" />
        </mxCell>
        <mxCell id="CpfnYOg2v_a6ThCRwZKN-75" value="" style="shadow=0;dashed=0;html=1;strokeColor=none;fillColor=#4495D1;labelPosition=center;verticalLabelPosition=bottom;verticalAlign=top;align=center;outlineConnect=0;shape=mxgraph.veeam.table;" parent="1" vertex="1">
          <mxGeometry x="891.3" y="214.97000000000003" width="25.07" height="26.4" as="geometry" />
        </mxCell>
        <mxCell id="CpfnYOg2v_a6ThCRwZKN-76" value="" style="shadow=0;dashed=0;html=1;strokeColor=none;fillColor=#4495D1;labelPosition=center;verticalLabelPosition=bottom;verticalAlign=top;align=center;outlineConnect=0;shape=mxgraph.veeam.table;" parent="1" vertex="1">
          <mxGeometry x="714.5799999999999" y="253.10000000000002" width="25.07" height="26.4" as="geometry" />
        </mxCell>
        <mxCell id="CpfnYOg2v_a6ThCRwZKN-77" value="" style="shadow=0;dashed=0;html=1;strokeColor=none;fillColor=#4495D1;labelPosition=center;verticalLabelPosition=bottom;verticalAlign=top;align=center;outlineConnect=0;shape=mxgraph.veeam.table;" parent="1" vertex="1">
          <mxGeometry x="739.6500000000001" y="223.10000000000002" width="21.43" height="30" as="geometry" />
        </mxCell>
        <mxCell id="CpfnYOg2v_a6ThCRwZKN-78" value="" style="shadow=0;dashed=0;html=1;strokeColor=none;fillColor=#4495D1;labelPosition=center;verticalLabelPosition=bottom;verticalAlign=top;align=center;outlineConnect=0;shape=mxgraph.veeam.table;" parent="1" vertex="1">
          <mxGeometry x="766" y="200.30000000000007" width="25.07" height="26.4" as="geometry" />
        </mxCell>
        <mxCell id="CpfnYOg2v_a6ThCRwZKN-79" value="" style="shadow=0;dashed=0;html=1;strokeColor=none;fillColor=#4495D1;labelPosition=center;verticalLabelPosition=bottom;verticalAlign=top;align=center;outlineConnect=0;shape=mxgraph.veeam.table;" parent="1" vertex="1">
          <mxGeometry x="739.6499999999999" y="279.5000000000001" width="25.07" height="26.4" as="geometry" />
        </mxCell>
        <mxCell id="CpfnYOg2v_a6ThCRwZKN-80" value="" style="shadow=0;dashed=0;html=1;strokeColor=none;fillColor=#4495D1;labelPosition=center;verticalLabelPosition=bottom;verticalAlign=top;align=center;outlineConnect=0;shape=mxgraph.veeam.table;" parent="1" vertex="1">
          <mxGeometry x="689.51" y="226.70000000000016" width="25.07" height="26.4" as="geometry" />
        </mxCell>
        <mxCell id="CpfnYOg2v_a6ThCRwZKN-85" value="" style="shadow=0;dashed=0;html=1;strokeColor=none;fillColor=#4495D1;labelPosition=center;verticalLabelPosition=bottom;verticalAlign=top;align=center;outlineConnect=0;shape=mxgraph.veeam.table;" parent="1" vertex="1">
          <mxGeometry x="592.38" y="242.7900000000002" width="25.07" height="26.4" as="geometry" />
        </mxCell>
        <mxCell id="CpfnYOg2v_a6ThCRwZKN-86" value="" style="shadow=0;dashed=0;html=1;strokeColor=none;fillColor=#4495D1;labelPosition=center;verticalLabelPosition=bottom;verticalAlign=top;align=center;outlineConnect=0;shape=mxgraph.veeam.table;" parent="1" vertex="1">
          <mxGeometry x="592.38" y="204.79000000000016" width="25.07" height="26.4" as="geometry" />
        </mxCell>
        <mxCell id="CpfnYOg2v_a6ThCRwZKN-87" value="" style="shadow=0;dashed=0;html=1;strokeColor=none;fillColor=#4495D1;labelPosition=center;verticalLabelPosition=bottom;verticalAlign=top;align=center;outlineConnect=0;shape=mxgraph.veeam.table;" parent="1" vertex="1">
          <mxGeometry x="592.38" y="281.79000000000025" width="25.07" height="26.4" as="geometry" />
        </mxCell>
        <mxCell id="CpfnYOg2v_a6ThCRwZKN-89" value="" style="line;strokeWidth=1;direction=south;html=1;fillColor=#D15E52;strokeColor=#999999;" parent="1" vertex="1">
          <mxGeometry x="662" y="186.3" width="10" height="160" as="geometry" />
        </mxCell>
        <mxCell id="CpfnYOg2v_a6ThCRwZKN-90" value="" style="edgeStyle=orthogonalEdgeStyle;rounded=0;orthogonalLoop=1;jettySize=auto;html=1;strokeWidth=4;" parent="1" target="CpfnYOg2v_a6ThCRwZKN-86" edge="1">
          <mxGeometry relative="1" as="geometry">
            <mxPoint x="419" y="218" as="sourcePoint" />
            <mxPoint x="510" y="230" as="targetPoint" />
            <Array as="points">
              <mxPoint x="419" y="218" />
            </Array>
          </mxGeometry>
        </mxCell>
        <mxCell id="CpfnYOg2v_a6ThCRwZKN-91" value="" style="edgeStyle=orthogonalEdgeStyle;rounded=0;orthogonalLoop=1;jettySize=auto;html=1;strokeWidth=4;" parent="1" target="CpfnYOg2v_a6ThCRwZKN-87" edge="1">
          <mxGeometry relative="1" as="geometry">
            <mxPoint x="420" y="295" as="sourcePoint" />
            <mxPoint x="590" y="295" as="targetPoint" />
            <Array as="points" />
          </mxGeometry>
        </mxCell>
        <mxCell id="CpfnYOg2v_a6ThCRwZKN-94" value="" style="shape=image;verticalLabelPosition=bottom;labelBackgroundColor=default;verticalAlign=top;aspect=fixed;imageAspect=0;image=https://w7.pngwing.com/pngs/559/367/png-transparent-postgresql-object-relational-database-oracle-database-freebsd-icon-text-logo-head-thumbnail.png;" parent="1" vertex="1">
          <mxGeometry x="20" y="286.81" width="72" height="70.39" as="geometry" />
        </mxCell>
        <mxCell id="CpfnYOg2v_a6ThCRwZKN-100" value="&lt;div&gt;&lt;font style=&quot;font-size: 16px&quot; color=&quot;#2D4D69&quot;&gt;&lt;b&gt;Analytics&lt;/b&gt;&lt;/font&gt;&lt;/div&gt;&lt;div&gt;&lt;font style=&quot;font-size: 16px&quot; color=&quot;#2D4D69&quot;&gt;&lt;b&gt;Reporting&lt;/b&gt;&lt;/font&gt;&lt;/div&gt;&lt;div&gt;&lt;font style=&quot;font-size: 16px&quot; color=&quot;#2D4D69&quot;&gt;&lt;b&gt;Data Science&lt;br&gt;&lt;/b&gt;&lt;/font&gt;&lt;/div&gt;" style="text;html=1;strokeColor=none;fillColor=none;align=left;verticalAlign=middle;whiteSpace=wrap;rounded=0;" parent="1" vertex="1">
          <mxGeometry x="1010" y="235" width="130" height="70" as="geometry" />
        </mxCell>
        <mxCell id="CpfnYOg2v_a6ThCRwZKN-101" value="" style="line;strokeWidth=1;direction=south;html=1;fillColor=#D15E52;strokeColor=#999999;" parent="1" vertex="1">
          <mxGeometry x="804.07" y="184" width="10" height="120" as="geometry" />
        </mxCell>
        <mxCell id="l51O1dzP2XHGGFUGHJ_R-2" value="" style="strokeColor=none;shadow=1;strokeWidth=1;rounded=1;absoluteArcSize=1;arcSize=2;fillColor=none;" vertex="1" parent="1">
          <mxGeometry x="734.5" y="74.5" width="170" height="55" as="geometry" />
        </mxCell>
        <mxCell id="l51O1dzP2XHGGFUGHJ_R-3" value="&lt;font style=&quot;font-size: 15px;&quot;&gt;BigQuery SQL&lt;/font&gt;" style="editableCssRules=.*;html=1;fontColor=#999999;shape=image;verticalLabelPosition=middle;labelBackgroundColor=#ffffff;verticalAlign=middle;labelPosition=right;align=left;spacingLeft=3;part=1;points=[];imageAspect=0;image=data:image/svg+xml,PHN2ZyB4bWxucz0iaHR0cDovL3d3dy53My5vcmcvMjAwMC9zdmciIHhtbG5zOnY9Imh0dHBzOi8vdmVjdGEuaW8vbmFubyIgd2lkdGg9IjIwLjAwMTA0NTIyNzA1MDc4IiBoZWlnaHQ9IjIwLjAwMTA0NTIyNzA1MDc4IiBmaWxsLXJ1bGU9ImV2ZW5vZGQiIHZpZXdCb3g9IjAgMCAyMC4wMDEwNDUyMjcwNTA3OCAyMC4wMDEwNDUyMjcwNTA3OCI+JiN4YTsJPHN0eWxlIHR5cGU9InRleHQvY3NzIj4mI3hhOwkuc3Qwe2ZpbGw6I2FlY2JmYTt9JiN4YTsJLnN0MXtmaWxsOiM2NjlkZjY7fSYjeGE7CS5zdDJ7ZmlsbDojNDI4NWY0O30mI3hhOwk8L3N0eWxlPiYjeGE7CTxwYXRoIGNsYXNzPSJzdDAiIGQ9Ik00LjczIDguODN2Mi42M2E0LjkxIDQuOTEgMCAwIDAgMS43MSAxLjc0VjguODN6Ii8+JiN4YTsJPHBhdGggY2xhc3M9InN0MSIgZD0iTTcuODkgNi40MXY3LjUzQTcuNjIgNy42MiAwIDAgMCA5IDE0YTggOCAwIDAgMCAxIDBWNi40MXoiLz4mI3hhOwk8cGF0aCBjbGFzcz0ic3QwIiBkPSJNMTEuNjQgOS44NnYzLjI5YTUgNSAwIDAgMCAxLjctMS44MlY5Ljg2eiIvPiYjeGE7CTxwYXRoIGNsYXNzPSJzdDIiIGQ9Ik0xNS43NCAxNC4zMmwtMS40MiAxLjQyYS40Mi40MiAwIDAgMCAwIC42bDMuNTQgMy41NGEuNDIuNDIgMCAwIDAgLjU5IDBsMS40My0xLjQzYS40Mi40MiAwIDAgMCAwLS41OWwtMy41NC0zLjU0YS40Mi40MiAwIDAgMC0uNiAwIi8+JiN4YTsJPHBhdGggY2xhc3M9InN0MSIgZD0iTTkgMGE5IDkgMCAxIDAgMCAxOEE5IDkgMCAxIDAgOSAwbTAgMTUuNjlhNi42OCA2LjY4IDAgMCAxIC4wMDctMTMuMzYgNi42OCA2LjY4IDAgMCAxIDQuNzI3IDExLjQwM0E2LjY4IDYuNjggMCAwIDEgOSAxNS42OSIvPiYjeGE7PC9zdmc+;spacing=0;" vertex="1" parent="l51O1dzP2XHGGFUGHJ_R-2">
          <mxGeometry width="30" height="30" relative="1" as="geometry">
            <mxPoint x="15" y="15" as="offset" />
          </mxGeometry>
        </mxCell>
        <mxCell id="l51O1dzP2XHGGFUGHJ_R-5" value="" style="shadow=1;strokeWidth=1;rounded=1;absoluteArcSize=1;arcSize=2;fillColor=none;strokeColor=none;" vertex="1" parent="1">
          <mxGeometry x="539" y="335" width="116.25" height="40" as="geometry" />
        </mxCell>
        <mxCell id="l51O1dzP2XHGGFUGHJ_R-6" value="&lt;font style=&quot;font-size: 16px;&quot;&gt;BigQuery&lt;/font&gt;" style="editableCssRules=.*;html=1;fontColor=#999999;shape=image;verticalLabelPosition=middle;labelBackgroundColor=#ffffff;verticalAlign=middle;labelPosition=right;align=left;spacingLeft=2;part=1;points=[];imageAspect=0;image=data:image/svg+xml,PHN2ZyB4bWxucz0iaHR0cDovL3d3dy53My5vcmcvMjAwMC9zdmciIHhtbG5zOnY9Imh0dHBzOi8vdmVjdGEuaW8vbmFubyIgd2lkdGg9IjIwLjAwMTA0NTIyNzA1MDc4IiBoZWlnaHQ9IjIwLjAwMTA0NTIyNzA1MDc4IiBmaWxsLXJ1bGU9ImV2ZW5vZGQiIHZpZXdCb3g9IjAgMCAyMC4wMDEwNDUyMjcwNTA3OCAyMC4wMDEwNDUyMjcwNTA3OCI+JiN4YTsJPHN0eWxlIHR5cGU9InRleHQvY3NzIj4mI3hhOwkuc3Qwe2ZpbGw6I2FlY2JmYTt9JiN4YTsJLnN0MXtmaWxsOiM2NjlkZjY7fSYjeGE7CS5zdDJ7ZmlsbDojNDI4NWY0O30mI3hhOwk8L3N0eWxlPiYjeGE7CTxwYXRoIGNsYXNzPSJzdDAiIGQ9Ik00LjczIDguODN2Mi42M2E0LjkxIDQuOTEgMCAwIDAgMS43MSAxLjc0VjguODN6Ii8+JiN4YTsJPHBhdGggY2xhc3M9InN0MSIgZD0iTTcuODkgNi40MXY3LjUzQTcuNjIgNy42MiAwIDAgMCA5IDE0YTggOCAwIDAgMCAxIDBWNi40MXoiLz4mI3hhOwk8cGF0aCBjbGFzcz0ic3QwIiBkPSJNMTEuNjQgOS44NnYzLjI5YTUgNSAwIDAgMCAxLjctMS44MlY5Ljg2eiIvPiYjeGE7CTxwYXRoIGNsYXNzPSJzdDIiIGQ9Ik0xNS43NCAxNC4zMmwtMS40MiAxLjQyYS40Mi40MiAwIDAgMCAwIC42bDMuNTQgMy41NGEuNDIuNDIgMCAwIDAgLjU5IDBsMS40My0xLjQzYS40Mi40MiAwIDAgMCAwLS41OWwtMy41NC0zLjU0YS40Mi40MiAwIDAgMC0uNiAwIi8+JiN4YTsJPHBhdGggY2xhc3M9InN0MSIgZD0iTTkgMGE5IDkgMCAxIDAgMCAxOEE5IDkgMCAxIDAgOSAwbTAgMTUuNjlhNi42OCA2LjY4IDAgMCAxIC4wMDctMTMuMzYgNi42OCA2LjY4IDAgMCAxIDQuNzI3IDExLjQwM0E2LjY4IDYuNjggMCAwIDEgOSAxNS42OSIvPiYjeGE7PC9zdmc+;spacing=0;imageBackground=default;" vertex="1" parent="l51O1dzP2XHGGFUGHJ_R-5">
          <mxGeometry width="30" height="30" relative="1" as="geometry">
            <mxPoint x="15" y="15" as="offset" />
          </mxGeometry>
        </mxCell>
      </root>
    </mxGraphModel>
  </diagram>
</mxfile>
